<?xml version="1.0" encoding="utf-8"?>
<!-- Generator: Adobe Illustrator 16.0.0, SVG Export Plug-In . SVG Version: 6.00 Build 0)  -->
<!DOCTYPE svg PUBLIC "-//W3C//DTD SVG 1.1//EN" "http://www.w3.org/Graphics/SVG/1.1/DTD/svg11.dtd">
<svg version="1.1" id="Layer_1" xmlns="http://www.w3.org/2000/svg" xmlns:xlink="http://www.w3.org/1999/xlink" x="0px" y="0px"
	 width="1024px" height="768px" viewBox="0 0 1024 768" enable-background="new 0 0 1024 768" xml:space="preserve">
<line fill="none" stroke="#000000" stroke-miterlimit="10" x1="291.5" y1="61" x2="291.5" y2="266"/>
<line fill="none" stroke="#000000" stroke-miterlimit="10" x1="113.5" y1="244" x2="113.5" y2="244"/>
<line fill="none" stroke="#000000" stroke-miterlimit="10" x1="270" y1="266.5" x2="113" y2="266.5"/>
<g id="hall">
	<path fill="#DDD1B3" stroke="#000000" stroke-miterlimit="10" d="M592,497.5H381.5v-91H321l0.5-0.5V267.5h-31V61L527,61.5
		c177.98,0,322,144.02,322,322L591.5,384v114"/>
	<g>
		<g>
			<path fill="none" stroke="#000000" stroke-miterlimit="10" d="M500,497.313c0-13.06-10.566-23.813-23.625-23.813h0.375
				l-23.625,23.719"/>
		</g>
		<line fill="none" stroke="#DDD1B3" stroke-miterlimit="10" x1="454.078" y1="497.5" x2="499.5" y2="497.5"/>
	</g>
</g>
<g id="room2">
	<path fill="#DDD1B3" stroke="#000000" stroke-miterlimit="10" d="M704.875,382.5l143.625,0.016v153.151L590,535.5l0.25-153h-0.002
		l67.943,0.055l24.054-24.055C694.546,358.5,704.875,369.891,704.875,382.5"/>
</g>
<g id="WC">
	<rect x="252.5" y="405.5" fill="#DDD1B3" stroke="#000000" stroke-miterlimit="10" width="129" height="130"/>
	<g>
		<g>
			<path fill="none" stroke="#000000" stroke-miterlimit="10" d="M381.719,473.938c13.06,0,23.781-10.566,23.781-23.625v0.375
				l-23.703-23.625"/>
		</g>
		<line fill="none" stroke="#DDD1B3" stroke-miterlimit="10" x1="381.563" y1="428.016" x2="381.563" y2="473.438"/>
	</g>
</g>
<g id="room1">
	<path fill="#DDD1B3" stroke="#000000" stroke-miterlimit="10" d="M291,267.5L111.5,267V62l0.5-0.5L291.5,61v62l0.297,0.063
		l23.703,23.625v-0.375c0,13.059-10.723,23.625-23.781,23.625L291.5,170v97"/>
</g>
<g id="kitchen">
	<g>
		<polygon fill="#DDD1B3" stroke="#000000" stroke-miterlimit="10" points="252.5,535 252.5,406 252,405.5 322,405.5 322.5,405 
			322.5,266 323,265.5 112,265.5 111.5,266 111.5,536 111,535.5 251,535.5 		"/>
	</g>
	<g>
		<g>
			<path fill="none" stroke="#000000" stroke-miterlimit="10" d="M322.719,368.938c13.06,0,23.781-10.566,23.781-23.625v0.375
				l-23.703-23.625"/>
		</g>
		<line fill="none" stroke="#DDD1B3" stroke-miterlimit="10" x1="322.563" y1="323.016" x2="322.563" y2="368.438"/>
	</g>
</g>
<circle fill="none" stroke="#000000" stroke-miterlimit="10" cx="161.034" cy="428.292" r="18.792"/>
<rect x="111.5" y="487.767" fill="none" stroke="#000000" stroke-miterlimit="10" width="45" height="47.733"/>
<rect x="196.5" y="502.5" fill="none" stroke="#000000" stroke-miterlimit="10" width="56" height="33"/>
<rect x="224.5" y="439.5" fill="none" stroke="#000000" stroke-miterlimit="10" width="28" height="63"/>
<g>
	<rect x="156.5" y="502.5" fill="none" stroke="#000000" stroke-miterlimit="10" width="40" height="33"/>
	<circle fill="none" stroke="#000000" stroke-miterlimit="10" cx="167.595" cy="512.43" r="4.929"/>
	<circle fill="none" stroke="#000000" stroke-miterlimit="10" cx="186.118" cy="512.43" r="4.929"/>
	<circle fill="none" stroke="#000000" stroke-miterlimit="10" cx="167.595" cy="526.81" r="4.929"/>
	<circle fill="none" stroke="#000000" stroke-miterlimit="10" cx="186.118" cy="526.81" r="4.929"/>
</g>
</svg>
