<?xml version="1.0" encoding="utf-8"?>
<!-- Generator: Adobe Illustrator 16.0.0, SVG Export Plug-In . SVG Version: 6.00 Build 0)  -->
<!DOCTYPE svg PUBLIC "-//W3C//DTD SVG 1.1//EN" "http://www.w3.org/Graphics/SVG/1.1/DTD/svg11.dtd">
<svg version="1.1" id="House_x5F_Plan" xmlns="http://www.w3.org/2000/svg" xmlns:xlink="http://www.w3.org/1999/xlink" x="0px"
	 y="0px" width="1024px" height="768px" viewBox="0 0 1024 768" enable-background="new 0 0 1024 768" xml:space="preserve">
<g id="Hall">
	<path fill="#F9E9D5" stroke="#000000" stroke-miterlimit="10" d="M592.172,497.328h-210.5v-91h-60.5l0.5-0.5v-138.5h-31v-206.5
		l236.5,0.5c177.98,0,322,144.02,322,322l-257.5,0.5v114"/>
	<g id="hall_x5F_furniture">
		
			<ellipse transform="matrix(0.8735 0.4869 -0.4869 0.8735 173.6617 -285.5008)" fill="#FFFFFF" stroke="#000000" stroke-miterlimit="10" cx="636.146" cy="191.382" rx="101.84" ry="47.417"/>
		
			<rect x="524.5" y="107" transform="matrix(0.718 0.6961 -0.6961 0.718 233.6559 -339.6774)" fill="#FFFFFF" stroke="#000000" stroke-miterlimit="10" width="23.001" height="23.001"/>
		
			<rect x="513" y="166.084" transform="matrix(0.4209 0.9071 -0.9071 0.4209 464.8302 -372.9388)" fill="#FFFFFF" stroke="#000000" stroke-miterlimit="10" width="23" height="23.001"/>
		
			<rect x="550.719" y="216.726" transform="matrix(0.8004 0.5995 -0.5995 0.8004 249.048 -291.4868)" fill="#FFFFFF" stroke="#000000" stroke-miterlimit="10" width="23" height="23"/>
		
			<rect x="599.895" y="248.581" transform="matrix(0.8602 0.51 -0.51 0.8602 218.1295 -275.4448)" fill="#FFFFFF" stroke="#000000" stroke-miterlimit="10" width="22.999" height="23"/>
		
			<rect x="664.5" y="267.828" transform="matrix(0.996 0.0897 -0.0897 0.996 27.7864 -59.5219)" fill="#FFFFFF" stroke="#000000" stroke-miterlimit="10" width="23" height="23.001"/>
		
			<rect x="728.07" y="256" transform="matrix(0.7071 -0.7071 0.7071 0.7071 27.4641 601.3041)" fill="#FFFFFF" stroke="#000000" stroke-miterlimit="10" width="23" height="23"/>
		<circle fill="#FFFFFF" stroke="#000000" stroke-miterlimit="10" cx="328.403" cy="88.748" r="23"/>
		<g id="sofa">
			<path fill="#FFFFFF" stroke="#000000" stroke-miterlimit="10" d="M377.438,108.996c-6.627,0-12-5.373-12-12V80.5
				c0-6.628,5.373-12,12-12h100.524c6.628,0,12,5.372,12,12v16.496c0,6.627-5.372,12-12,12H377.438z"/>
			<path fill="#FFFFFF" stroke="#000000" stroke-miterlimit="10" d="M375.696,75.496c-1.708,0-3.092-1.566-3.092-3.498l0,0
				c0-1.933,1.383-3.498,3.092-3.498h103.888c1.708,0,3.092,1.565,3.092,3.498l0,0c0,1.932-1.384,3.498-3.092,3.498H375.696z"/>
			<path fill="#FFFFFF" stroke="#000000" stroke-miterlimit="10" d="M370.604,106.663c-2.761,0-5-2.239-5-5V80.496
				c0-2.762,2.239-5,5-5l0,0c2.761,0,5,2.238,5,5v21.167C375.604,104.424,373.366,106.663,370.604,106.663L370.604,106.663z"/>
			<path fill="#FFFFFF" stroke="#000000" stroke-miterlimit="10" d="M484.962,106.331c-2.761,0-5-2.238-5-5V80.164
				c0-2.761,2.239-5,5-5l0,0c2.762,0,5,2.239,5,5v21.167C489.962,104.093,487.724,106.331,484.962,106.331L484.962,106.331z"/>
		</g>
	</g>
	<g id="hall_x5F_doors">
		<line fill="none" stroke="#000000" stroke-miterlimit="10" x1="454.5" y1="491.933" x2="454.5" y2="503.724"/>
		<line fill="none" stroke="#000000" stroke-miterlimit="10" x1="507.75" y1="491.933" x2="507.75" y2="503.724"/>
	</g>
</g>
<g id="Room1">
	<g>
		<path fill="#F9E9D5" stroke="#000000" stroke-miterlimit="10" d="M111.5,266.5V62.495l0.5-0.498L291.5,61.5v61.699V266.5"/>
		<line fill="#F9E9D5" stroke="#000000" stroke-miterlimit="10" x1="291.5" y1="266.5" x2="111.5" y2="266.5"/>
	</g>
	<g id="room1_x5F_furniture">
		<rect x="216.875" y="62.5" fill="#FFFFFF" stroke="#000000" stroke-miterlimit="10" width="27" height="27"/>
		<rect x="248.499" y="63.12" fill="#FFFFFF" stroke="#000000" stroke-miterlimit="10" width="38.001" height="103.13"/>
		<path fill="#FFFFFF" stroke="#000000" stroke-miterlimit="10" d="M111.243,166.25h22.789c0,0,0-23.083,0-39.474
			s4.135-31.276,22.5-31.276s24.689,0,24.689,0v-33L112,61.998L111.243,166.25z"/>
		<rect x="111.5" y="235.5" fill="#FFFFFF" stroke="#000000" stroke-miterlimit="10" width="61.056" height="31"/>
		<rect x="270" y="235.5" fill="#FFFFFF" stroke="#000000" stroke-miterlimit="10" width="20.672" height="31"/>
		<circle fill="#FFFFFF" stroke="#000000" stroke-miterlimit="10" cx="152.157" cy="114.685" r="11.791"/>
	</g>
	<g id="room1_x5F_doors">
		<line fill="none" stroke="#000000" stroke-miterlimit="10" x1="284.776" y1="177.585" x2="296.567" y2="177.585"/>
		<line fill="none" stroke="#000000" stroke-miterlimit="10" x1="284.776" y1="212.127" x2="296.567" y2="212.127"/>
	</g>
</g>
<g id="Room2">
	<path fill="#F9E9D5" stroke="#000000" stroke-miterlimit="10" d="M704.875,382.5l143.625,0.016v153.151L590,535.5l0.25-153h-0.002
		l67.943,0.055C658.191,382.555,658.191,382.555,704.875,382.5"/>
	<g id="room2_x5F_furniture">
		<rect x="821.5" y="509.048" fill="#FFFFFF" stroke="#000000" stroke-miterlimit="10" width="27" height="27"/>
		<rect x="821.5" y="384" fill="#FFFFFF" stroke="#000000" stroke-miterlimit="10" width="27" height="27"/>
		<path fill="#FFFFFF" stroke="#000000" stroke-miterlimit="10" d="M750.5,427.5c0-6.627,5.373-12,12-12h74c6.627,0,12,5.373,12,12
			v63.667c0,6.627-5.373,12-12,12h-74c-6.627,0-12-5.373-12-12V427.5z"/>
		<rect x="590" y="383.759" fill="#FFFFFF" stroke="#000000" stroke-miterlimit="10" width="37.15" height="151.741"/>
		<rect x="627.15" y="511.004" fill="#FFFFFF" stroke="#000000" stroke-miterlimit="10" width="48.85" height="24.496"/>
	</g>
	<g id="room2_x5F_doors">
		<line fill="none" stroke="#000000" stroke-miterlimit="10" x1="663.514" y1="376.854" x2="663.514" y2="388.646"/>
		<line fill="none" stroke="#000000" stroke-miterlimit="10" x1="706.25" y1="376.604" x2="706.25" y2="388.396"/>
	</g>
</g>
<g id="WC">
	<rect x="252.5" y="405.5" fill="#F9E9D5" stroke="#000000" stroke-miterlimit="10" width="129" height="130"/>
	<g id="wc_x5F_furniture">
		<g>
			<ellipse fill="#FFFFFF" stroke="#000000" stroke-miterlimit="10" cx="363" cy="514.164" rx="11" ry="16.336"/>
			<rect x="348.5" y="517.5" fill="#FFFFFF" stroke="#000000" stroke-miterlimit="10" width="28" height="13"/>
		</g>
		<path fill="#FFFFFF" stroke="#000000" stroke-miterlimit="10" d="M338.5,518.5c0,6.627-5.373,12-12,12h-57.838
			c-6.627,0-12-5.373-12-12v-14.993c0-6.627,5.373-12,12-12H326.5c6.627,0,12,5.373,12,12V518.5z"/>
		<path fill="#FFFFFF" stroke="#000000" stroke-miterlimit="10" d="M321.507,480.5c0,2.762-2.239,5-5,5H279.5c-2.761,0-5-2.238-5-5
			l0,0c0-2.762,2.239-5,5-5h37.007C319.269,475.5,321.507,477.738,321.507,480.5L321.507,480.5z"/>
		<rect x="350.5" y="408.5" fill="#FFFFFF" stroke="#000000" stroke-miterlimit="10" width="28" height="28"/>
		<path fill="#FFFFFF" stroke="#000000" stroke-miterlimit="10" d="M254.836,472.075c0,0,15-1.102,22-12.104
			c7-11.004,4-13.203,9-24.206c5-11.004,22-8.803,22-8.803v-18.705c-53,0-53,0-53,0V472.075z"/>
	</g>
	<g id="wc_x5F_doors">
		<line fill="none" stroke="#000000" stroke-miterlimit="10" x1="375.604" y1="445.75" x2="387.396" y2="445.75"/>
		<line fill="none" stroke="#000000" stroke-miterlimit="10" x1="375.604" y1="471.667" x2="387.396" y2="471.667"/>
	</g>
</g>
<g id="Kitchen">
	<g>
		<polygon fill="#F9E9D5" stroke="#000000" stroke-miterlimit="10" points="252.741,535.657 252.509,406.657 252.008,406.158 
			322.507,405.531 322.257,266.532 111.757,266.41 111.258,266.911 111.243,536.411 251.242,536.16 		"/>
	</g>
	<g id="kitchen_x5F_furniture">
		<rect x="111.531" y="488.434" fill="#FFFFFF" stroke="#000000" stroke-miterlimit="10" width="45" height="47.733"/>
		<rect x="196.531" y="503.167" fill="#FFFFFF" stroke="#000000" stroke-miterlimit="10" width="56" height="33"/>
		<rect x="224.531" y="440.167" fill="#FFFFFF" stroke="#000000" stroke-miterlimit="10" width="28" height="63"/>
		<g id="hotplate">
			<rect x="156.531" y="503.167" fill="#FFFFFF" stroke="#000000" stroke-miterlimit="10" width="40" height="33"/>
			<circle class="inner_elements"  fill="#FFFFFF" stroke="#000000" stroke-miterlimit="10" cx="167.627" cy="513.097" r="4.929"/>
			<circle class="inner_elements"  fill="#FFFFFF" stroke="#000000" stroke-miterlimit="10" cx="186.149" cy="513.097" r="4.929"/>
			<circle class="inner_elements"  fill="#FFFFFF" stroke="#000000" stroke-miterlimit="10" cx="167.627" cy="527.477" r="4.929"/>
			<circle class="inner_elements"  fill="#FFFFFF" stroke="#000000" stroke-miterlimit="10" cx="186.149" cy="527.477" r="4.929"/>
		</g>
		<rect x="111.401" y="266" fill="#FFFFFF" stroke="#000000" stroke-miterlimit="10" width="34.198" height="133.91"/>
		<circle fill="#FFFFFF" stroke="#000000" stroke-miterlimit="10" cx="158.023" cy="283.764" r="11.791"/>
		<circle fill="#FFFFFF" stroke="#000000" stroke-miterlimit="10" cx="156.531" cy="373.854" r="11.791"/>
		<circle fill="#FFFFFF" stroke="#000000" stroke-miterlimit="10" cx="158.023" cy="329.833" r="11.791"/>
	</g>
	<g id="kitchen_x5F_doors">
		<line fill="none" stroke="#000000" stroke-miterlimit="10" x1="315.612" y1="291.813" x2="327.403" y2="291.813"/>
		<line fill="none" stroke="#000000" stroke-miterlimit="10" x1="315.612" y1="376.854" x2="327.403" y2="376.854"/>
	</g>
</g>
</svg>
